Source : Ip.Man.2.2010.DVDRip.XviD.AC3-ViSiON



Legendado pt




Format                           : MPEG-4
Format profile                   : Sony PSP
Codec ID                         : MSNV
File size                        : 462 MiB
Duration                         : 1h 45mn
Overall bit rate                 : 614 Kbps

Video
ID                               : 1
Format                           : MPEG-4 Visual
Format profile                   : Simple@L1
Format settings, BVOP            : No
Format settings, QPel            : No
Format settings, GMC             : No warppoints
Format settings, Matrix          : Default (H.263)
Codec ID                         : 20
Duration                         : 1h 45mn
Bit rate mode                    : Constant
Bit rate                         : 563 Kbps
Nominal bit rate                 : 563 bps
Width                            : 368 pixels
Height                           : 208 pixels
Display aspect ratio             : 16:9
Frame rate mode                  : Constant
Frame rate                       : 29.970 fps
Color space                      : YUV
Chroma subsampling               : 4:2:0
Bit depth                        : 8 bits
Scan type                        : Progressive
Bits/(Pixel*Frame)               : 0.245
Stream size                      : 423 MiB (92%)
Language                         : English

Audio
ID                               : 2
Format                           : AAC
Format/Info                      : Advanced Audio Codec
Format version                   : Version 4
Format profile                   : LC
Format settings, SBR             : Yes
Format settings, PS              : Yes
Codec ID                         : 40
Duration                         : 1h 45mn
Bit rate mode                    : Constant
Bit rate                         : 48.0 Kbps
Channel(s)                       : 2 channels
Channel positions                : Front: L R
Sampling rate                    : 48.0 KHz
Stream size                      : 36.0 MiB (8%)
Language                         : English




mete os 2 ficheiro dentro da raiz do cartao da psp
